<?xml version="1.0" encoding="UTF-8" standalone="no"?><!DOCTYPE svg PUBLIC "-//W3C//DTD SVG 1.1//EN" "http://www.w3.org/Graphics/SVG/1.1/DTD/svg11.dtd"><svg width="100%" height="100%" viewBox="0 0 1080 700" version="1.1" xmlns="http://www.w3.org/2000/svg" xmlns:xlink="http://www.w3.org/1999/xlink" xml:space="preserve" xmlns:serif="http://www.serif.com/" style="fill-rule:evenodd;clip-rule:evenodd;stroke-linecap:round;stroke-linejoin:round;stroke-miterlimit:1.5;"><rect x="0" y="0" width="1080" height="700" style="fill:#101827;"/><g><rect x="187.819" y="71.724" width="114.318" height="114.318" style="fill:#868686;stroke:#fff;stroke-width:1px;"/><g transform="matrix(16,0,0,16,273.782924,55.424084)"></g><text x="216.174px" y="55.424px" style="font-family:'AndaleMono', 'Andale Mono', monospace;font-size:16px;fill:#fff;">SECTOR</text><g transform="matrix(16,0,0,16,292.986049,208.912838)"></g><text x="196.97px" y="208.913px" style="font-family:'AndaleMono', 'Andale Mono', monospace;font-size:16px;fill:#fff;">conditions</text></g><g><rect x="66.519" y="271.519" width="358.136" height="358.136" style="fill:#868686;stroke:#fff;stroke-width:1px;"/><rect x="123.678" y="292.841" width="114.318" height="114.318" style="fill:#212936;stroke:#fff;stroke-width:1px;"/><g transform="matrix(16,0,0,16,152.483123,255.2199)"></g><text x="94.874px" y="255.22px" style="font-family:'AndaleMono', 'Andale Mono', monospace;font-size:16px;fill:#fff;">SECTOR</text></g><g><g transform="matrix(16,0,0,16,562.620508,208.912838)"></g><text x="466.605px" y="208.913px" style="font-family:'AndaleMono', 'Andale Mono', monospace;font-size:16px;fill:#fff;">conditions</text><rect x="457.453" y="71.724" width="114.318" height="114.318" style="fill:#868686;stroke:#fff;stroke-width:1px;"/><g transform="matrix(16,0,0,16,543.417383,55.424084)"></g><text x="485.808px" y="55.424px" style="font-family:'AndaleMono', 'Andale Mono', monospace;font-size:16px;fill:#fff;">SECTOR</text></g><g><g transform="matrix(16,0,0,16,832.746434,208.912838)"></g><text x="736.731px" y="208.913px" style="font-family:'AndaleMono', 'Andale Mono', monospace;font-size:16px;fill:#fff;">conditions</text><rect x="727.579" y="71.724" width="114.318" height="114.318" style="fill:#868686;stroke:#fff;stroke-width:1px;"/><g transform="matrix(16,0,0,16,813.543309,55.424084)"></g><text x="755.934px" y="55.424px" style="font-family:'AndaleMono', 'Andale Mono', monospace;font-size:16px;fill:#fff;">SECTOR</text></g><g><g transform="matrix(16,0,0,16,693.128423,112.583313)"></g><text x="606.714px" y="112.583px" style="font-family:'AndaleMono', 'Andale Mono', monospace;font-size:16px;fill:#fff;">SCENE:FLY</text><g><path d="M572.263,128.883l155.316,0" style="fill:none;"/><path d="M696.746,118.605l30.834,10.278l-30.834,10.278l0,-20.556Z" style="fill:#fff;"/><path d="M572.263,128.883l130.649,0" style="fill:none;stroke:#fff;stroke-width:5.5px;stroke-linecap:butt;"/></g></g><g><g transform="matrix(16,0,0,16,423.002498,112.583313)"></g><text x="336.588px" y="112.583px" style="font-family:'AndaleMono', 'Andale Mono', monospace;font-size:16px;fill:#fff;">SCENE:FLY</text><g><path d="M302.137,128.883l155.316,0" style="fill:none;"/><path d="M426.62,118.605l30.834,10.278l-30.834,10.278l0,-20.556Z" style="fill:#fff;"/><path d="M302.137,128.883l130.649,0" style="fill:none;stroke:#fff;stroke-width:5.5px;stroke-linecap:butt;"/></g></g></svg>