<?xml version="1.0" encoding="UTF-8" standalone="no"?><!DOCTYPE svg PUBLIC "-//W3C//DTD SVG 1.1//EN" "http://www.w3.org/Graphics/SVG/1.1/DTD/svg11.dtd"><svg width="100%" height="100%" viewBox="0 0 256 256" version="1.1" xmlns="http://www.w3.org/2000/svg" xmlns:xlink="http://www.w3.org/1999/xlink" xml:space="preserve" xmlns:serif="http://www.serif.com/" style="fill-rule:evenodd;clip-rule:evenodd;stroke-linecap:round;stroke-linejoin:round;stroke-miterlimit:1.5;"><g id="calendar"><path d="M-0,170l0,-111.287c0,-32.405 26.308,-58.713 58.713,-58.713l138.574,0c16.099,0 30.693,6.493 41.304,17.001l-21.591,117.262l-217,35.737Z" style="fill:#2ea8d1;"/><path d="M130.061,125.531l108.53,-108.53c10.748,10.643 17.409,25.406 17.409,41.712l0,138.574c0,32.405 -26.308,58.713 -58.713,58.713l-92.602,-0l25.375,-130.469Z" style="fill:#2783ce;"/><path d="M107.21,256l-48.497,-0c-16.306,-0 -31.068,-6.662 -41.712,-17.409l154.999,-154.591c15.099,17.804 19.395,41.135 13.272,69.796l9.098,15.044l-87.16,87.16Z" style="fill:#1d5d9a;"/><path d="M172,84l-154.999,154.591c-10.508,-10.611 -17.001,-25.205 -17.001,-41.304l0,-47.181l60,-60.277l16.311,-0.849c34.924,-25.709 66.619,-25.77 95.689,-4.98Z" style="fill:#2b85c1;"/><circle cx="128" cy="128" r="44" style="fill:none;stroke:#fff;stroke-width:8.5px;"/><path d="M67.768,147.825c-0.828,-4.753 -1.931,-8.606 -5.768,-10.825c-5.63,-3.255 -11.729,-4.061 -12,-9c-0.271,-4.939 7.346,-5.19 12,-9c1.663,-1.361 2.939,-2.591 3.925,-3.947c1.659,-4.53 2.631,-8.419 0.417,-12.259c-3.248,-5.634 -8.127,-9.381 -5.892,-13.794c2.235,-4.413 8.957,-0.822 14.892,-1.794c2.121,-0.347 3.84,-0.774 5.373,-1.455c3.702,-3.094 6.488,-5.975 6.491,-10.408c0.004,-6.503 -2.348,-12.188 1.794,-14.892c4.142,-2.704 8.168,3.767 13.794,5.892c2.01,0.759 3.713,1.25 5.381,1.426c4.753,-0.828 8.606,-1.931 10.825,-5.768c3.255,-5.63 4.061,-11.729 9,-12c4.939,-0.271 5.19,7.346 9,12c1.361,1.663 2.591,2.939 3.947,3.925c4.53,1.659 8.419,2.631 12.259,0.417c5.634,-3.248 9.381,-8.127 13.794,-5.892c4.413,2.235 0.822,8.957 1.794,14.892c0.347,2.121 0.774,3.84 1.455,5.373c3.094,3.702 5.975,6.488 10.408,6.491c6.503,0.004 12.188,-2.348 14.892,1.794c2.704,4.142 -3.767,8.168 -5.892,13.794c-0.759,2.01 -1.25,3.713 -1.426,5.381c0.828,4.753 1.931,8.606 5.768,10.825c5.63,3.255 11.729,4.061 12,9c0.271,4.939 -7.346,5.19 -12,9c-1.663,1.361 -2.939,2.591 -3.925,3.947c-1.659,4.53 -2.631,8.419 -0.417,12.259c3.248,5.634 8.127,9.381 5.892,13.794c-2.235,4.413 -8.957,0.822 -14.892,1.794c-2.121,0.347 -3.84,0.774 -5.373,1.455c-3.702,3.094 -6.488,5.975 -6.491,10.408c-0.004,6.503 2.348,12.188 -1.794,14.892c-4.142,2.704 -8.168,-3.767 -13.794,-5.892c-2.01,-0.759 -3.713,-1.25 -5.381,-1.426c-4.753,0.828 -8.606,1.931 -10.825,5.768c-3.255,5.63 -4.061,11.729 -9,12c-4.939,0.271 -5.19,-7.346 -9,-12c-1.361,-1.663 -2.591,-2.939 -3.947,-3.925c-4.53,-1.659 -8.419,-2.631 -12.259,-0.417c-5.634,3.248 -9.381,8.127 -13.794,5.892c-4.413,-2.235 -0.822,-8.957 -1.794,-14.892c-0.347,-2.121 -0.774,-3.84 -1.455,-5.373c-3.094,-3.702 -5.975,-6.488 -10.408,-6.491c-6.503,-0.004 -12.188,2.348 -14.892,-1.794c-2.704,-4.142 3.767,-8.168 5.892,-13.794c0.759,-2.01 1.25,-3.713 1.426,-5.381Zm2.415,-37.684l-1.184,2.05l-0,2.373c0.34,-1.496 0.735,-2.971 1.184,-4.423Zm16.767,-26.568l-2.141,1.236l-1.236,2.141c1.081,-1.17 2.208,-2.296 3.378,-3.378Zm41.05,-13.073c-31.735,0 -57.5,25.765 -57.5,57.5c0,31.735 25.765,57.5 57.5,57.5c31.735,0 57.5,-25.765 57.5,-57.5c0,-31.735 -25.765,-57.5 -57.5,-57.5Z" style="fill:#fff;"/><circle cx="128" cy="128" r="12" style="fill:#fff;"/></g></svg>